<svg width="283" height="112" viewBox="0 0 283 112" fill="none" xmlns="http://www.w3.org/2000/svg">
<path d="M120 49.5362V74.3843H129.041V49.2715C129.041 46.8956 130.982 44.97 133.377 44.97H146.269V36H133.644C126.108 36 120 42.0602 120 49.5362Z" fill="white"/>
<path d="M178.729 36.0001L169.7 53.0898L159.719 36.0001H149.278L164.72 62.4618L163.752 64.182C163.256 65.119 162.285 65.7 161.221 65.7H154.828V74.67H161.221C165.651 74.67 169.686 72.2545 171.752 68.3649L188.998 36.0001H178.729Z" fill="white"/>
<path d="M198.192 58.4089L203.767 47.8385C204.602 46.0952 206.398 44.9693 208.344 44.9693H211.036C211.664 44.9693 212.173 45.4746 212.173 46.0974V58.4089H198.192ZM214.392 36.0005H208.344C202.929 36.0005 197.927 39.1343 195.681 43.8335L179.555 74.4013H189.756L193.461 67.3789H212.173V74.4013H221.214V42.768C221.214 39.03 218.16 36.0005 214.392 36.0005Z" fill="white"/>
<path d="M257.831 36.0001H237.359C233.592 36.0001 230.538 39.0307 230.538 42.7676V74.3163H239.579V46.0894C239.579 45.4709 240.084 44.97 240.706 44.97H254.484C255.108 44.97 255.613 45.4709 255.613 46.0894V74.2999H264.653V42.7676C264.653 39.0307 261.599 36.0001 257.831 36.0001Z" fill="white"/>
<path d="M53.4344 44.39C42.4787 44.5273 17 45.8674 17 55.3141C17 65.4638 46.5598 66.2537 55.62 66.2537C64.6802 66.2537 94.2401 65.4638 94.2401 55.3141C94.2401 50.4897 88.2213 48.3774 83.694 47.2075C79.1257 46.0289 73.1204 45.1754 66.3011 44.7262C66.4562 47.0505 66.5613 49.4539 66.6111 51.9089C76.7597 52.6273 82.8094 54.1794 85.594 55.3273C81.5339 56.9992 71.2514 59.1027 55.62 59.1027C39.9211 59.1027 29.6309 56.9849 25.6029 55.3098C29.4139 53.706 38.8195 51.7266 53.5252 51.5388C54.4885 51.5267 55.3886 51.1433 56.0607 50.46C56.7327 49.7768 57.0959 48.8739 57.0826 47.9183C57.0582 45.9729 55.4429 44.39 53.4344 44.39Z" fill="white"/>
<path d="M44.5941 55.3141C44.5941 64.3027 45.3891 93.6293 55.6196 93.6293C60.4835 93.6293 62.6115 87.6603 63.7885 83.172C64.961 78.709 65.8424 72.6005 66.2908 65.9197C63.6158 66.0877 61.1334 66.1745 59.0541 66.2163C58.3289 76.288 56.7634 82.2877 55.6074 85.0514C53.9223 81.0234 51.8009 70.8198 51.8009 55.3141C51.8009 39.7797 53.9267 29.5784 55.6141 25.5614C57.2339 29.4565 59.3044 39.191 59.4328 53.9092C59.4494 55.8622 61.0659 57.4539 63.0677 57.4539C65.0529 57.4352 66.6561 55.8183 66.6395 53.8465C66.5598 44.6316 65.7228 35.9901 64.2857 29.5125C62.3901 20.9754 59.6365 17 55.6196 17C45.3891 17 44.5941 46.3254 44.5941 55.3141Z" fill="white"/>
</svg>
